<?xml version="1.0" encoding="utf-8"?>
<svg width="166px" height="49px" viewBox="0 0 166 49" version="1.1" xmlns:xlink="http://www.w3.org/1999/xlink" xmlns="http://www.w3.org/2000/svg">
  <desc>Created with Lunacy</desc>
  <defs>
    <filter id="filter_1">
      <feColorMatrix in="SourceGraphic" type="matrix" values="0 0 0 0 1 0 0 0 0 1 0 0 0 0 1 0 0 0 1 0" />
    </filter>
    <path d="M0 0L166 0L166 49L0 49L0 0Z" id="path_1" />
    <path d="M0 0L93.96 0L93.96 48.29L0.000999999 48.29L0 0Z" id="path_2" />
    <clipPath id="mask_1">
      <use xlink:href="#path_1" />
    </clipPath>
    <clipPath id="mask_2">
      <use xlink:href="#path_2" />
    </clipPath>
  </defs>
  <g id="logo2" filter="url(#filter_1)">
    <path d="M0 0L166 0L166 49L0 49L0 0Z" id="Background" fill="none" fill-rule="evenodd" stroke="none" />
    <g clip-path="url(#mask_1)">
      <g id="Group" transform="translate(0 0.02999878)">
        <path d="M0 13.253L0 13.13L27.95 0L56 13.176L56 13.209L27.95 26.383L0 13.253ZM27.95 4.795L10.077 13.192L10.076 13.192L27.95 21.588L45.827 13.192L27.95 4.795ZM27.95 31.483L0 18.55L0 23.334L27.95 36.298L56 23.289L56 18.505L27.95 31.483ZM0 28.25L27.95 41.186L56 28.206L56 32.99L27.95 46L0 33.033L0 28.25Z" transform="translate(0 0.97)" id="Shape" fill="#BDBAFA" fill-rule="evenodd" stroke="none" />
        <g id="Group" transform="translate(72.014 0)">
          <g id="Mask-group">
            <path d="M0 0L93.96 0L93.96 48.29L0.000999999 48.29L0 0Z" id="a" fill="none" fill-rule="evenodd" stroke="none" />
            <g clip-path="url(#mask_2)">
              <path d="M62.528 37.456C63.1185 37.3235 63.6933 37.1291 64.243 36.876L64.243 31.614C63.56 32.06 62.847 32.283 62.105 32.283C61.511 32.283 60.998 32.082 60.568 31.681C60.137 31.28 59.922 30.544 59.922 29.474L59.922 0L53.373 0L53.373 30.589C53.373 31.866 53.566 32.959 53.951 33.866C54.338 34.773 54.858 35.508 55.511 36.073C56.1772 36.6445 56.9606 37.063 57.806 37.299C58.6969 37.5537 59.6194 37.6813 60.546 37.678C61.228 37.678 61.89 37.604 62.528 37.456ZM6.771 7.313L23.524 7.313L23.524 1.383L0 1.383L0 37.009L6.77 37.009L6.77 21.225L23.3 21.225L23.3 15.607L6.771 15.607L6.771 7.313ZM93.96 24.123C93.96 26.055 93.603 27.846 92.89 29.496C92.2054 31.1046 91.2058 32.5598 89.95 33.776C88.703 34.981 87.24 35.932 85.562 36.63C83.884 37.329 82.094 37.678 80.193 37.678C78.293 37.678 76.51 37.329 74.847 36.63C73.2224 35.9569 71.7408 34.9809 70.481 33.754C69.228 32.527 68.2289 31.0652 67.541 29.452C66.828 27.802 66.471 26.026 66.471 24.123C66.471 22.25 66.835 20.489 67.563 18.839C68.2675 17.2228 69.2727 15.7551 70.525 14.514C71.7801 13.2754 73.263 12.2913 74.892 11.616C76.5707 10.9144 78.3736 10.5579 80.193 10.568C82.094 10.568 83.883 10.918 85.562 11.616C87.24 12.314 88.702 13.266 89.95 14.47C91.198 15.674 92.178 17.108 92.89 18.772C93.603 20.437 93.96 22.221 93.96 24.123ZM50.477 11.191L50.4766 11.192L43.572 11.192L38.002 27.78L32.077 11.192L25.082 11.192L35.017 36.965L34.126 39.551C33.68 40.8 33.042 41.655 32.21 42.115C31.378 42.576 30.458 42.806 29.448 42.806C28.973 42.806 28.468 42.739 27.934 42.605C27.3971 42.4706 26.8746 42.2841 26.374 42.048L28.512 48.023C28.8485 48.1142 29.191 48.1814 29.537 48.224C29.894 48.268 30.22 48.29 30.517 48.29C32.447 48.29 34.111 47.785 35.507 46.775C36.903 45.764 38.032 44.114 38.893 41.825L50.4766 11.192L50.477 11.192L50.477 11.191ZM85.3839 18.5499C86.7884 20.0641 87.5615 22.0576 87.545 24.123L87.544 24.123C87.561 26.1884 86.7883 28.1824 85.384 29.697C84.7236 30.4047 83.9283 30.9732 83.045 31.369C82.153 31.771 81.203 31.971 80.193 31.971C79.2105 31.9767 78.2383 31.7714 77.342 31.369C76.4583 30.9734 75.6627 30.4049 75.0021 29.697C73.5981 28.1826 72.8255 26.1891 72.842 24.124C72.8252 22.0586 73.5978 20.0647 75.002 18.55C75.6626 17.8418 76.4582 17.2729 77.342 16.877C78.233 16.476 79.184 16.276 80.194 16.276C81.1761 16.2701 82.1479 16.4751 83.044 16.877C83.9277 17.273 84.7233 17.8418 85.3839 18.5499Z" transform="translate(0.0009994507 -0.0010000002)" id="Shape" fill="#000000" fill-rule="evenodd" stroke="none" />
            </g>
          </g>
        </g>
      </g>
    </g>
  </g>
</svg>